<?xml version="1.0" encoding="UTF-8"?><svg xmlns="http://www.w3.org/2000/svg" xmlns:xlink="http://www.w3.org/1999/xlink" width="375pt" zoomAndPan="magnify" viewBox="0 0 375 149.999998" height="149.999998pt" preserveAspectRatio="xMidYMid meet" version="1.2"><defs><g/></defs><g xml:id="surface1" id="surface1"><g style="fill:rgb(100%,100%,100%);fill-opacity:1;"><g transform="translate(45.422896, 99.323988)"><path style="stroke:none;" d="M 38.453125 0 L 3.75 0 L 3.75 -43.765625 L 38.453125 -43.765625 L 38.453125 -35.015625 L 15 -35.015625 L 15 -26.5625 L 33.453125 -26.5625 L 33.453125 -17.8125 L 15 -17.8125 L 15 -8.75 L 38.453125 -8.75 Z M 38.453125 0 "/></g></g><g style="fill:rgb(100%,100%,100%);fill-opacity:1;"><g transform="translate(85.113185, 99.323988)"><path style="stroke:none;" d="M 28.125 -43.765625 C 32.84375 -43.765625 36.421875 -42.546875 38.859375 -40.109375 C 41.296875 -37.671875 42.515625 -34.09375 42.515625 -29.375 L 42.515625 -14.375 C 42.515625 -9.664062 41.296875 -6.09375 38.859375 -3.65625 C 36.421875 -1.21875 32.84375 0 28.125 0 L 3.75 0 L 3.75 -43.765625 Z M 31.265625 -29.375 C 31.265625 -33.132812 29.382812 -35.015625 25.625 -35.015625 L 15 -35.015625 L 15 -8.75 L 25.625 -8.75 C 29.382812 -8.75 31.265625 -10.625 31.265625 -14.375 Z M 31.265625 -29.375 "/></g></g><g style="fill:rgb(100%,100%,100%);fill-opacity:1;"><g transform="translate(130.11635, 99.323988)"><path style="stroke:none;" d="M 31.890625 -43.765625 L 43.140625 -43.765625 L 43.140625 -11.875 C 43.140625 -7.5 42.148438 -4.320312 40.171875 -2.34375 C 38.191406 -0.363281 35.007812 0.625 30.625 0.625 L 16.25 0.625 C 11.875 0.625 8.695312 -0.363281 6.71875 -2.34375 C 4.738281 -4.320312 3.75 -7.5 3.75 -11.875 L 3.75 -43.765625 L 15 -43.765625 L 15 -11.875 C 15 -9.375 16.25 -8.125 18.75 -8.125 L 28.125 -8.125 C 30.632812 -8.125 31.890625 -9.375 31.890625 -11.875 Z M 31.890625 -43.765625 "/></g></g><g style="fill:rgb(100%,100%,100%);fill-opacity:1;"><g transform="translate(176.99465, 99.323988)"><path style="stroke:none;" d="M 41.265625 -24.375 L 32.515625 -8.75 L 23.75 -8.75 L 15 -24.375 L 15 0 L 3.75 0 L 3.75 -43.765625 L 15.625 -43.765625 L 28.125 -20.625 L 40.640625 -43.765625 L 52.515625 -43.765625 L 52.515625 0 L 41.265625 0 Z M 41.265625 -24.375 "/></g></g><g style="fill:rgb(100%,100%,100%);fill-opacity:1;"><g transform="translate(233.248606, 99.323988)"><path style="stroke:none;" d="M 11.5625 0 L -0.625 0 L 15.9375 -43.765625 L 28.4375 -43.765625 L 45.015625 0 L 32.828125 0 L 30 -7.8125 L 14.375 -7.8125 Z M 17.1875 -15.9375 L 27.1875 -15.9375 L 22.1875 -30.625 Z M 17.1875 -15.9375 "/></g></g><g style="fill:rgb(100%,100%,100%);fill-opacity:1;"><g transform="translate(277.626732, 99.323988)"><path style="stroke:none;" d=""/></g></g><g style="fill:rgb(100%,100%,100%);fill-opacity:1;"><g transform="translate(296.378044, 99.323988)"><path style="stroke:none;" d="M 11.5625 0 L -0.625 0 L 15.9375 -43.765625 L 28.4375 -43.765625 L 45.015625 0 L 32.828125 0 L 30 -7.8125 L 14.375 -7.8125 Z M 17.1875 -15.9375 L 27.1875 -15.9375 L 22.1875 -30.625 Z M 17.1875 -15.9375 "/></g></g><g style="fill:rgb(34.899902%,0%,100%);fill-opacity:1;"><g transform="translate(274.198024, 99.152798)"><path style="stroke:none;" d="M 5.15625 0 L 5.15625 -47.65625 L 18.09375 -47.65625 L 18.09375 0 Z M 5.15625 0 "/></g></g></g></svg>